<?xml version="1.0" encoding="UTF-8"?>
<svg version="1.1" xmlns="http://www.w3.org/2000/svg" width="225" height="225">
<path d="M0 0 C10.4686807 3.70995351 16.33876229 12.31998645 21 22 C21.89036246 24.36502527 22.49264065 26.51957649 23 29 C23.66 27.68 24.32 26.36 25 25 C28.81860796 32.30516305 30.3410653 38.60508588 28.31640625 46.75 C24.74542179 57.4185013 18.51345437 63.88653591 10 71 C12.97 70.01 12.97 70.01 16 69 C14.45759618 73.23197048 11.59348141 75.00991885 8 77.5625 C3.46766381 80.75830502 3.46766381 80.75830502 0 85 C2.31 83.68 4.62 82.36 7 81 C5.497502 84.78156799 3.33222323 86.56365239 0.125 89 C-6.32288374 93.55427902 -6.32288374 93.55427902 -9.8125 100.25 C-10.01841973 104.36839453 -9.64190455 107.93460449 -9 112 C-12.1457733 109.42618548 -12.97986261 106.88899536 -14 103 C-14.19892071 99.45111363 -14.00111203 95.9127554 -13.83398438 92.36523438 C-13.6623227 85.77697765 -15.3077023 81.53844655 -19 76 C-15.62537285 76.54723683 -13.91765 77.0549 -11 79 C-13.04800863 74.5889045 -15.06210613 70.78357479 -18.125 67 C-21.17095234 63.12333338 -22.13814541 59.82638571 -23 55 C-20.95933577 56.83659781 -19.69466896 58.50161528 -18.25 60.875 C-16.27131918 63.6231678 -15.05071656 64.84892701 -12.359375 66.6953125 C-11.72999023 67.13117676 -11.10060547 67.56704102 -10.45214844 68.01611328 C-9.97293945 68.3407959 -9.49373047 68.66547852 -9 69 C-9.31751221 68.5467334 -9.63502441 68.0934668 -9.9621582 67.62646484 C-11.4163987 65.54549258 -12.86447527 63.46030169 -14.3125 61.375 C-14.81201172 60.66214844 -15.31152344 59.94929688 -15.82617188 59.21484375 C-21.22338122 51.42284616 -25.01945606 44.73580533 -24 35 C-23.18002934 31.92511003 -22.15297975 28.96480506 -21 26 C-20.67 27.32 -20.34 28.64 -20 30 C-19.34 30 -18.68 30 -18 30 C-17.95875 29.175 -17.9175 28.35 -17.875 27.5 C-16.41476 21.65904 -12.48205777 17.77051197 -8.671875 13.21875 C-7.87265625 12.2596875 -7.0734375 11.300625 -6.25 10.3125 C-5.49203125 9.42175781 -4.7340625 8.53101562 -3.953125 7.61328125 C-2.0859114 5.11494945 -0.99548317 2.93879339 0 0 Z M-7 28 C-9.97597086 30.97597086 -11.95438064 33.91257885 -13 38 C-12.81472214 43.83625256 -11.98416021 47.50505002 -8 52 C-4.02528384 54.97654084 -0.36205426 56.34843566 4.625 56.0625 C9.20607204 55.26476159 11.83635489 53.46494464 15 50 C17.65742332 45.45666336 18.49282187 42.0186407 17.57421875 36.921875 C16.31444691 32.70549577 14.10985717 29.86988806 10.6875 27.1875 C4.25954943 24.34724277 -0.96277728 24.58022242 -7 28 Z M-8 70 C-7 72 -7 72 -7 72 Z " fill="#181818" transform="translate(110,56)"/>
<path d="M0 0 C3.14181922 2.73902189 3.89668018 4.57196075 4.875 8.625 C5 12 5 12 3 15 C0.14949017 14.53596352 -2.68181511 14.0715916 -5.5 13.4375 C-8.10048055 12.90011285 -8.10048055 12.90011285 -11.1875 13.0625 C-14 13 -14 13 -16 11 C-15.90953769 6.92919603 -15.25516581 5.29442208 -12.5625 2.1875 C-8.39287954 -1.3719321 -5.22323674 -1.4893982 0 0 Z " fill="#202020" transform="translate(118,88)"/>
<path d="M0 0 C2.00047972 1.80043175 3.24114479 3.40809119 4.625 5.75 C7.03572977 9.5559159 10.52857171 11.83053015 14.171875 14.38671875 C14.77515625 14.91910156 15.3784375 15.45148438 16 16 C16 16.99 16 17.98 16 19 C14.35 19.66 12.7 20.32 11 21 C1.03644647 7.55125285 1.03644647 7.55125285 0 0 Z " fill="#3B3B3B" transform="translate(87,111)"/>
<path d="M0 0 C0 3 0 3 -1.4609375 4.60546875 C-2.09257813 5.12753906 -2.72421875 5.64960938 -3.375 6.1875 C-4.00148438 6.71730469 -4.62796875 7.24710938 -5.2734375 7.79296875 C-7 9 -7 9 -9 9 C-8.63594751 6.29561004 -8.31857318 5.25593617 -6.15234375 3.515625 C-5.42144531 3.09796875 -4.69054687 2.6803125 -3.9375 2.25 C-3.20402344 1.82203125 -2.47054687 1.3940625 -1.71484375 0.953125 C-1.14894531 0.63859375 -0.58304688 0.3240625 0 0 Z " fill="#656565" transform="translate(116,137)"/>
<path d="M0 0 C3.68754757 0.49831724 5.60490662 1.10067643 8 4 C7.67 4.66 7.34 5.32 7 6 C6.01 6 5.02 6 4 6 C1.8125 3 1.8125 3 0 0 Z " fill="#828282" transform="translate(91,132)"/>
<path d="M0 0 C2.72426311 2.35277269 3.8141763 4.62496331 5 8 C4.34 8.66 3.68 9.32 3 10 C2.49596232 8.70990357 1.99690074 7.41786211 1.5 6.125 C1.2215625 5.40570313 0.943125 4.68640625 0.65625 3.9453125 C0 2 0 2 0 0 Z " fill="#989898" transform="translate(87,111)"/>
<path d="M0 0 C0 3 0 3 -1.375 4.6875 C-3 6 -3 6 -5 6 C-5.33 5.01 -5.66 4.02 -6 3 C-4.02 2.01 -2.04 1.02 0 0 Z " fill="#6D6D6D" transform="translate(125,125)"/>
<path d="" fill="#EBEBEB" transform="translate(0,0)"/>
<path d="" fill="#B1B1B1" transform="translate(0,0)"/>
</svg>
